<?xml version="1.0" encoding="UTF-8" standalone="no"?>
<!DOCTYPE svg PUBLIC "-//W3C//DTD SVG 1.1//EN" "http://www.w3.org/Graphics/SVG/1.1/DTD/svg11.dtd">
<svg version="1.1" xmlns="http://www.w3.org/2000/svg" xmlns:xlink="http://www.w3.org/1999/xlink" preserveAspectRatio="xMidYMid meet" viewBox="0 0 1000 1000" width="100" height="100"><defs><path d="M52.12 233.34C52.39 226.8 54.53 220.47 58.28 215.1C69.86 198.56 91.65 167.44 101.43 153.47C111.17 139.56 123.57 127.71 137.91 118.62C149.88 111.02 149.16 111.48 157.41 106.25C183.91 89.44 214.1 79.33 245.38 76.81C258.48 75.75 246.13 76.75 258.22 75.77C292.73 72.99 327.36 79.36 358.62 94.25C370.43 99.88 399.95 113.95 447.2 136.46C462.12 126.12 471.45 119.66 475.19 117.07C478.71 114.63 483.33 114.43 487.05 116.57C489.8 118.15 496.67 122.09 507.66 128.4L342.02 249.77C326.68 236.82 317.09 228.73 313.26 225.5C290.14 205.98 263.29 191.36 234.35 182.54C225.58 179.86 233.5 182.28 222.32 178.87C201.25 172.44 179.28 169.51 157.27 170.19C152.83 170.33 156.15 170.23 147.57 170.49C139.57 170.74 131.98 174.08 126.39 179.81C120.65 185.7 126.44 179.76 124.28 181.98C107.7 198.99 100.9 223.27 106.24 246.42C108.4 255.79 110.51 264.92 113.72 278.83C115.85 288.08 114.27 297.8 109.31 305.89C105.31 312.43 103.37 315.59 99.94 321.18C94.3 330.39 81.84 332.54 73.43 325.75C68.57 321.82 70.72 323.56 66.07 319.81C55.42 311.2 49.48 298.06 50.03 284.39C50.53 272.17 51.53 247.9 52.12 233.34Z" id="eB0bwwYrQ"></path><path d="M64.43 567.11C71.28 521.89 92.58 480.11 125.14 447.99C146.63 426.78 134.92 438.34 149.9 423.56C204.91 369.29 265 320.44 329.36 277.68C364.74 254.18 404.05 229.14 447.3 202.56C526.49 153.9 613.29 103.04 707.71 50L705.51 95.71C725.64 116.8 738.22 129.98 743.25 135.25C794.45 188.89 826.42 257.97 834.18 331.71C836.5 353.81 842.31 409.06 851.6 497.46C851.6 586.34 851.6 641.89 851.6 664.11C851.6 709.71 868.93 753.6 900.08 786.9C906.73 794.02 923.37 811.81 950 840.27C895.47 895.71 861.39 930.36 847.75 944.22C842.15 949.92 833.63 951.58 826.3 948.42C810.87 941.77 805.12 939.3 796.79 935.71C766.3 922.56 742.32 897.78 730.2 866.87C727.28 859.45 723.76 839.47 719.61 806.93C708.05 716.14 709.55 626.17 705.51 563C701.86 505.95 696.73 443.98 690.13 377.09C683.44 309.32 649.98 247.03 597.17 204.04C597.17 204.04 597.17 204.04 597.17 204.04C597.17 204.04 597.17 204.04 597.17 204.04C562.11 200.44 527.41 213.67 503.65 239.7C483.08 262.24 495.44 248.7 483.95 261.29C428.76 321.76 381.69 389.15 343.91 461.77C341 467.36 333.74 481.33 322.11 503.67C318.31 510.87 315.94 515.37 314.99 517.17C262.18 617.21 234.58 728.63 234.58 841.75C234.58 861.7 234.58 840.32 234.58 883.02C234.58 915.33 208.39 941.52 176.07 941.52C162.9 941.52 171.06 941.52 155.18 941.52C134.74 941.52 121.61 919.81 131.1 901.71C141.33 882.2 146.13 873.04 155.11 855.92C171.37 824.92 166.27 787.04 142.41 761.44C123.93 741.61 117.25 734.45 101.01 717.02C68.78 682.46 54.13 635.06 61.21 588.34C63.97 570.16 61.54 586.15 64.43 567.11Z" id="b17bbnNJA1"></path><path d="M318.34 635.06C312.48 654.79 308.83 667.13 307.36 672.06C304.01 683.37 288.95 685.56 282.52 675.67C279.61 671.2 283.77 677.6 280 671.82C272.74 660.66 273.01 646.19 280.7 635.32C290.3 621.75 313.77 588.55 325.23 572.36C327.51 569.12 330.24 566.23 333.34 563.76C355.83 545.79 335.71 561.87 337.46 560.46C404.03 507.29 494.67 495.6 572.55 530.15C590.42 538.08 635.11 557.9 706.62 589.62L590.14 709.02C569.92 696.15 557.28 688.11 552.23 684.89C482.87 640.73 399.92 623.03 318.58 635.02C318.55 635.03 318.47 635.04 318.34 635.06Z" id="cTmD9WRLq"></path></defs><g><g><g><g><g><use xlink:href="#eB0bwwYrQ" opacity="1" fill="#c35d5d" fill-opacity="1"></use><use xlink:href="#eB0bwwYrQ" opacity="1" fill="#c35d5d" fill-opacity="1"></use></g><g><use xlink:href="#b17bbnNJA1" opacity="1" fill="#c35d5d" fill-opacity="1"></use><use xlink:href="#b17bbnNJA1" opacity="1" fill="#c35d5d" fill-opacity="1"></use></g></g><g><use xlink:href="#cTmD9WRLq" opacity="1" fill="#c35d5d" fill-opacity="1"></use><use xlink:href="#cTmD9WRLq" opacity="1" fill="#c35d5d" fill-opacity="1"></use></g></g></g></g></svg>