<?xml version="1.0" encoding="UTF-8" standalone="no"?>
<!DOCTYPE svg PUBLIC "-//W3C//DTD SVG 1.1//EN" "http://www.w3.org/Graphics/SVG/1.1/DTD/svg11.dtd">
<svg version="1.1" xmlns="http://www.w3.org/2000/svg" xmlns:xlink="http://www.w3.org/1999/xlink" preserveAspectRatio="xMidYMid meet" viewBox="0 0 1000 1000" width="200" height="200"><defs><path d="M201.41 322.23C201.59 317.87 203.02 313.65 205.52 310.07C213.24 299.04 227.77 278.29 234.29 268.98C240.78 259.71 249.04 251.81 258.6 245.75C266.58 240.68 266.11 240.98 271.61 237.5C289.27 226.29 309.4 219.56 330.25 217.87C338.99 217.17 330.75 217.83 338.81 217.18C361.82 215.33 384.91 219.58 405.74 229.5C413.62 233.26 433.3 242.63 464.8 257.64C474.75 250.75 480.97 246.44 483.46 244.71C485.81 243.09 488.89 242.96 491.37 244.38C493.2 245.43 497.78 248.06 505.11 252.27L394.68 333.18C384.45 324.55 378.06 319.16 375.51 317C360.09 303.99 342.19 294.24 322.9 288.36C317.05 286.58 322.33 288.19 314.88 285.91C300.83 281.63 286.19 279.68 271.51 280.13C268.56 280.22 270.77 280.15 265.04 280.33C259.71 280.5 254.65 282.72 250.93 286.54C247.1 290.47 250.96 286.51 249.52 287.99C238.46 299.33 233.93 315.52 237.49 330.95C238.93 337.2 240.34 343.28 242.48 352.56C243.9 358.72 242.85 365.2 239.54 370.6C236.87 374.95 235.58 377.06 233.3 380.79C229.53 386.93 221.22 388.36 215.62 383.83C212.38 381.22 213.81 382.37 210.72 379.87C203.62 374.14 199.65 365.38 200.02 356.26C200.36 348.12 201.02 331.93 201.41 322.23Z" id="e3JNfFDJfh"></path><path d="M209.62 544.74C214.19 514.6 228.39 486.74 250.09 465.33C264.42 451.19 256.61 458.89 266.6 449.04C303.27 412.86 343.34 380.3 386.24 351.79C409.82 336.12 436.03 319.43 464.87 301.71C517.66 269.26 575.53 235.36 638.47 200L637.01 230.47C650.43 244.53 658.81 253.32 662.17 256.84C696.3 292.59 717.62 338.65 722.78 387.81C724.33 402.54 728.21 439.38 734.4 498.31C734.4 557.56 734.4 594.6 734.4 609.41C734.4 639.81 745.95 669.07 766.72 691.27C771.16 696.01 782.25 707.87 800 726.85C763.64 763.81 740.92 786.91 731.84 796.15C728.1 799.95 722.42 801.06 717.53 798.95C707.25 794.52 703.42 792.87 697.86 790.47C677.53 781.71 661.55 765.19 653.46 744.58C651.52 739.63 649.17 726.31 646.41 704.62C638.7 644.09 639.7 584.11 637.01 542C634.57 503.97 631.16 462.65 626.75 418.06C622.29 372.88 599.99 331.36 564.78 302.7C564.78 302.7 564.78 302.7 564.78 302.7C564.78 302.7 564.78 302.7 564.78 302.7C541.4 300.29 518.27 309.11 502.43 326.47C488.72 341.49 496.96 332.47 489.3 340.86C452.51 381.17 421.12 426.1 395.94 474.52C394 478.24 389.16 487.55 381.41 502.45C378.87 507.25 377.29 510.25 376.66 511.45C341.45 578.14 323.05 652.42 323.05 727.83C323.05 741.14 323.05 726.88 323.05 755.35C323.05 776.89 305.59 794.35 284.05 794.35C275.27 794.35 280.71 794.35 270.12 794.35C256.49 794.35 247.74 779.88 254.07 767.81C260.89 754.8 264.09 748.7 270.07 737.28C280.91 716.62 277.52 691.36 261.6 674.29C249.28 661.07 244.84 656.3 234 644.68C212.52 621.64 202.75 590.04 207.47 558.9C209.31 546.78 207.69 557.43 209.62 544.74Z" id="a1Kv1vkHL"></path><path d="M378.89 590.04C374.99 603.2 372.55 611.42 371.57 614.71C369.34 622.25 359.3 623.71 355.01 617.12C353.07 614.14 355.85 618.4 353.34 614.55C348.49 607.11 348.68 597.46 353.8 590.21C360.2 581.17 375.85 559.04 383.48 548.24C385.01 546.08 386.83 544.15 388.89 542.51C403.89 530.53 390.47 541.25 391.64 540.31C436.02 504.86 496.44 497.07 548.36 520.1C560.28 525.39 590.08 538.6 637.75 559.75L560.09 639.35C546.61 630.77 538.19 625.41 534.82 623.26C488.58 593.82 433.28 582.02 379.05 590.02C379.03 590.02 378.98 590.03 378.89 590.04Z" id="d1YubBFBF"></path></defs><g><g><g><g><g><use xlink:href="#e3JNfFDJfh" opacity="1" fill="#c35d5d" fill-opacity="1"></use><use xlink:href="#e3JNfFDJfh" opacity="1" fill="#c35d5d" fill-opacity="1"></use></g><g><use xlink:href="#a1Kv1vkHL" opacity="1" fill="#c35d5d" fill-opacity="1"></use><use xlink:href="#a1Kv1vkHL" opacity="1" fill="#c35d5d" fill-opacity="1"></use></g></g><g><use xlink:href="#d1YubBFBF" opacity="1" fill="#c35d5d" fill-opacity="1"></use><use xlink:href="#d1YubBFBF" opacity="1" fill="#c35d5d" fill-opacity="1"></use></g></g></g></g></svg>